# xmcd
#
# Track frame offsets: 
#        150
#        21443
#        49733
#        68910
#        105877
#        122469
#        145878
#        174821
#        193409
#
# Disc length: 2950 seconds
#
# Revision: 3
# Processed by: cddbd v1.4PL0 Copyright (c) Steve Scherf et al.
# Submitted via: ExactAudioCopy v0.90b4
#
DISCID=760b8409
DTITLE=Cell Division - Dissolve
DYEAR=2001
DGENRE=Gothic Rock
TTITLE0=Skin Fetish
TTITLE1=Alice
TTITLE2=Secret Identity
TTITLE3=I Will Be Back
TTITLE4=Angel Of Lost Souls
TTITLE5=Teen-Age
TTITLE6=Routine
TTITLE7=Body and Soul
TTITLE8=Your Game
EXTD=
EXTT0=
EXTT1=
EXTT2=
EXTT3=
EXTT4=
EXTT5=
EXTT6=
EXTT7=
EXTT8=
PLAYORDER=
